<?xml version="1.0" encoding="UTF-8"?>
<svg id="Layer_1" xmlns="http://www.w3.org/2000/svg" version="1.1" viewBox="0 0 512 512">
  <!-- Generator: Adobe Illustrator 29.0.1, SVG Export Plug-In . SVG Version: 2.1.0 Build 192)  -->
  <path d="M288.6,149.4h61.9l76,191.1C511.9,171.2,325.2-.2,160.5,88.6l-21.8-59.6C226.9-16.6,324.5-7.2,405.6,48.6c141,97.1,141.2,315.6,1.3,413.4l-118.3-312.6Z"/>
  <path d="M163.7,364.4c-2.6-.4-6-3.5-6.7-6.3l-71.5-186.9C.8,340.3,186.7,513.7,351.5,423l21.8,59.6c-137.4,73.1-306.6,4.2-358.4-140.9C-22.3,237.4,13.4,114.2,105,51.6l118.4,312.7h-59.7Z"/>
  <path d="M327.7,364.4h-59.7c-1,0-7.4-7.3-7.7-9.7l-75.9-205.3h61.9l81.4,215Z"/>
</svg>